<svg xmlns="http://www.w3.org/2000/svg" width="1144" height="788" viewBox="0 0 1144 788">
    <g fill="none" fill-rule="evenodd" opacity=".4">
        <path fill="#F1F1F1" d="M1155.177 616.465l-13.144 25.017c-7.077 13.407-17.184 16.528-30.317 9.364l-42.156-22.698c-13.135-7.053-16.167-17.283-9.09-30.693l22.412-42.677c6.967-13.297 17.016-16.42 30.154-9.367l16.959 9.13 25.196 13.572c13.136 7.161 16.221 17.395 9.254 30.696l-9.268 17.656z"/>
        <path fill="#FFCB81" d="M995.749 623.327c2.166 2.267 3.251 4.99 3.251 8.173 0 3.182-1.085 5.883-3.251 8.1-2.123 2.267-4.704 3.4-7.75 3.4-3.044 0-5.649-1.133-7.815-3.4-2.123-2.217-3.184-4.918-3.184-8.1 0-3.182 1.061-5.906 3.184-8.173 2.166-2.218 4.771-3.327 7.815-3.327 3.046 0 5.627 1.11 7.75 3.327z"/>
        <path fill="#50E3C2" d="M920 477c1.914 0 3.548.676 4.9 2.03 1.4 1.4 2.1 3.058 2.1 4.97 0 1.96-.7 3.616-2.1 4.97-1.352 1.354-2.986 2.03-4.9 2.03-1.959 0-3.639-.676-5.039-2.03-1.307-1.354-1.961-3.01-1.961-4.97 0-1.912.654-3.57 1.961-4.97 1.4-1.354 3.08-2.03 5.039-2.03zM938.659 758.155c1.125-1.575 2.63-2.516 4.518-2.822 1.953-.317 3.702.096 5.246 1.236 1.582 1.17 2.507 2.733 2.777 4.693.297 1.92-.117 3.668-1.242 5.243-1.151 1.612-2.685 2.591-4.6 2.936-1.862.269-3.583-.181-5.165-1.35-1.543-1.14-2.497-2.668-2.858-4.579-.27-1.96.172-3.745 1.324-5.357zM1033.75 521.327c2.167 2.267 3.25 4.99 3.25 8.173 0 3.182-1.083 5.883-3.25 8.1-2.123 2.267-4.706 3.4-7.75 3.4-3.044 0-5.65-1.133-7.817-3.4-2.123-2.217-3.183-4.918-3.183-8.1 0-3.182 1.06-5.906 3.183-8.173 2.167-2.218 4.773-3.327 7.818-3.327 3.043 0 5.626 1.11 7.749 3.327z"/>
        <path fill="#C0DDFF" d="M848.24 713.365c3.06-.495 5.832.175 8.318 2.012 2.486 1.837 3.951 4.298 4.394 7.383.509 3.076-.143 5.88-1.953 8.414-1.81 2.535-4.245 4.052-7.305 4.547-2.994.488-5.734-.189-8.22-2.026-2.486-1.837-3.983-4.292-4.492-7.368-.443-3.084.24-5.895 2.051-8.43 1.81-2.534 4.213-4.044 7.208-4.532z"/>
        <path fill="#FFA92E" d="M185 22c1.914 0 3.546.676 4.9 2.03 1.4 1.4 2.1 3.056 2.1 4.97 0 1.96-.7 3.616-2.1 4.97-1.354 1.354-2.986 2.03-4.9 2.03-1.96 0-3.64-.676-5.04-2.03-1.308-1.354-1.96-3.01-1.96-4.97 0-1.914.652-3.57 1.96-4.97 1.4-1.354 3.08-2.03 5.04-2.03M961 277c1.912 0 3.546.678 4.9 2.03 1.4 1.4 2.1 3.056 2.1 4.97 0 1.96-.7 3.618-2.1 4.97-1.354 1.354-2.988 2.03-4.9 2.03-1.96 0-3.641-.676-5.041-2.03-1.305-1.352-1.959-3.01-1.959-4.97 0-1.914.654-3.57 1.959-4.97 1.4-1.352 3.081-2.03 5.041-2.03"/>
        <path fill="#E4E4E4" d="M875.897 371.699c2.917-5.73 7.243-7.139 12.982-4.228l18.414 9.372c5.738 2.959 7.15 7.305 4.233 13.035l-9.384 18.39c-2.963 5.78-7.313 7.188-13.052 4.228l-18.414-9.37c-5.738-2.915-7.125-7.26-4.162-13.035l9.383-18.392zM1072.897 745.699c2.917-5.73 7.243-7.139 12.982-4.228l18.414 9.372c5.738 2.959 7.15 7.305 4.233 13.035l-9.384 18.39c-2.963 5.78-7.313 7.188-13.052 4.228l-18.414-9.37c-5.738-2.915-7.125-7.26-4.162-13.035l9.383-18.392z"/>
        <path fill="#F4F4F4" d="M1080.74 402.133l8.924-27.645c1.955-5.974-.097-10.006-6.155-12.083l-39.276-12.835-26.437-8.645c-6.034-1.92-10.028.11-11.984 6.085l-21.585 66.81c-2.061 6.32-.077 10.442 5.957 12.358l65.714 21.484c6.058 2.077 10.115-.042 12.18-6.363l12.662-39.166z"/>
        <path fill="#B8E986" d="M.866 76.245c-.882.465-1.09 1.136-.626 2.016l5.006 9.873c.463.881 1.136 1.09 2.016.626l9.873-5.006c.88-.463 1.089-1.135.626-2.016l-5.006-9.873c-.463-.88-1.136-1.089-2.017-.626L.866 76.245zM137.866 316.245c-.882.465-1.09 1.136-.626 2.016l5.006 9.873c.463.881 1.136 1.09 2.016.626l9.873-5.006c.88-.463 1.089-1.135.626-2.016l-5.006-9.873c-.463-.88-1.136-1.089-2.017-.626l-9.872 5.006zM270.5 0c3.182 0 5.883 1.11 8.1 3.327 2.267 2.267 3.4 4.99 3.4 8.173 0 3.182-1.133 5.883-3.4 8.1-2.217 2.267-4.918 3.4-8.1 3.4-3.182 0-5.906-1.133-8.173-3.4-2.218-2.217-3.327-4.918-3.327-8.1 0-3.182 1.11-5.906 3.327-8.173C264.594 1.109 267.317 0 270.5 0"/>
        <path fill="#FFD9A2" d="M83 155c1.914 0 3.546.676 4.9 2.03 1.4 1.4 2.1 3.056 2.1 4.97 0 1.96-.7 3.616-2.1 4.97-1.354 1.354-2.986 2.03-4.9 2.03-1.96 0-3.64-.676-5.04-2.03-1.306-1.354-1.96-3.01-1.96-4.97 0-1.914.654-3.57 1.96-4.97 1.4-1.354 3.08-2.03 5.04-2.03"/>
        <path fill="#FFD9A4" d="M865 646c8.592 0 15.953 3.04 22.083 9.121 5.945 6.224 8.917 13.67 8.917 22.344 0 8.72-2.972 16.12-8.917 22.202C880.953 705.89 873.593 709 865 709c-8.592 0-15.86-3.11-21.804-9.333-6.13-6.081-9.196-13.481-9.196-22.202 0-8.673 3.065-16.12 9.196-22.344C849.14 649.041 856.408 646 865 646"/>
    </g>
</svg>
